<svg width="17" height="17" viewBox="0 0 17 17" fill="none" xmlns="http://www.w3.org/2000/svg">
<path d="M16.6235 0.389437C16.5042 0.269901 16.3625 0.175066 16.2065 0.11036C16.0505 0.0456545 15.8833 0.0123481 15.7144 0.0123481C15.5455 0.0123481 15.3783 0.0456545 15.2223 0.11036C15.0663 0.175066 14.9246 0.269901 14.8054 0.389437L8.5 6.68189L2.19465 0.376542C2.07527 0.257163 1.93355 0.162467 1.77757 0.0978598C1.6216 0.0332526 1.45442 1.25786e-09 1.2856 0C1.11677 -1.25786e-09 0.949595 0.0332526 0.793619 0.0978598C0.637644 0.162467 0.495921 0.257163 0.376542 0.376542C0.257163 0.495921 0.162467 0.637644 0.0978598 0.79362C0.0332526 0.949595 -1.25786e-09 1.11677 0 1.2856C1.25786e-09 1.45442 0.0332526 1.6216 0.0978598 1.77757C0.162467 1.93355 0.257163 2.07527 0.376542 2.19465L6.68189 8.5L0.376542 14.8054C0.257163 14.9247 0.162467 15.0665 0.0978598 15.2224C0.0332526 15.3784 0 15.5456 0 15.7144C0 15.8832 0.0332526 16.0504 0.0978598 16.2064C0.162467 16.3624 0.257163 16.5041 0.376542 16.6235C0.495921 16.7428 0.637644 16.8375 0.793619 16.9021C0.949595 16.9667 1.11677 17 1.2856 17C1.45442 17 1.6216 16.9667 1.77757 16.9021C1.93355 16.8375 2.07527 16.7428 2.19465 16.6235L8.5 10.3181L14.8054 16.6235C14.9247 16.7428 15.0665 16.8375 15.2224 16.9021C15.3784 16.9667 15.5456 17 15.7144 17C15.8832 17 16.0504 16.9667 16.2064 16.9021C16.3624 16.8375 16.5041 16.7428 16.6235 16.6235C16.7428 16.5041 16.8375 16.3624 16.9021 16.2064C16.9667 16.0504 17 15.8832 17 15.7144C17 15.5456 16.9667 15.3784 16.9021 15.2224C16.8375 15.0665 16.7428 14.9247 16.6235 14.8054L10.3181 8.5L16.6235 2.19465C17.1134 1.70466 17.1134 0.879423 16.6235 0.389437Z" fill="#5F5F5F"/>
</svg>
